<svg width="229" height="171" viewBox="0 0 229 171" fill="none" xmlns="http://www.w3.org/2000/svg">
<path d="M121.704 168.647L125.147 166.064L124.504 165.206L127.947 162.623L128.59 163.481L132.033 160.898L131.39 160.04L134.833 157.458L135.476 158.315L138.919 155.732L138.276 154.875L141.719 152.292L142.362 153.15L145.805 150.567L145.162 149.709L148.604 147.126L149.248 147.984L152.691 145.401L152.047 144.543L155.49 141.96L156.134 142.818L159.577 140.235L158.933 139.377L160.655 138.086L160.941 137.871H161.298H163.615V138.943H168.247V137.871H172.88V138.943H177.512V137.871H182.145V138.943H186.778V137.871H191.41V138.943H196.043V137.871H200.675V138.943H205.308V137.871H207.624C208.296 137.871 208.96 137.838 209.615 137.774L209.72 138.842C211.134 138.703 212.509 138.427 213.83 138.026L213.518 137C214.8 136.61 216.03 136.097 217.192 135.473L217.699 136.418C218.937 135.754 220.102 134.972 221.18 134.086L220.499 133.258C221.526 132.413 222.47 131.47 223.314 130.442L224.143 131.123C225.028 130.046 225.811 128.88 226.475 127.642L225.53 127.135C226.153 125.973 226.667 124.744 227.056 123.461L228.082 123.773C228.484 122.452 228.76 121.078 228.898 119.663L227.831 119.559C227.895 118.904 227.928 118.24 227.928 117.568V115.381H229V111.009H227.928V106.637H229V102.264H227.928V97.892H229V93.5196H227.928V89.1473H229V84.7749H227.928V80.4026H229V76.0303H227.928V71.6579H229V67.2856H227.928V62.9132H229V58.5409H227.928V54.1685H229V49.7962H227.928V45.4238H229V41.0515H227.928V36.6791H229V32.3068H227.928V27.9345H229V23.5621H227.928V21.3759C227.928 20.7038 227.895 20.0396 227.831 19.3846L228.898 19.2804C228.76 17.8658 228.484 16.4912 228.082 15.1705L227.056 15.4821C226.667 14.1996 226.153 12.9703 225.53 11.8081L226.475 11.3012C225.811 10.0631 225.028 8.89777 224.143 7.82029L223.314 8.50131C222.47 7.47383 221.526 6.53044 220.499 5.68583L221.18 4.85736C220.102 3.97165 218.937 3.18913 217.699 2.52502L217.192 3.4701C216.03 2.8467 214.8 2.33332 213.518 1.94379L213.83 0.917624C212.509 0.516481 211.134 0.239962 209.72 0.101808L209.615 1.16919C208.96 1.10522 208.296 1.07246 207.624 1.07246H205.432V0H201.048V1.07246H196.664V0H192.28V1.07246H187.897V0H183.513V1.07246H179.129V0H174.745V1.07246H170.361V0H165.977V1.07246H161.593V0H157.209V1.07246H152.825V0H148.441V1.07246H144.057V0H139.674V1.07246H135.29V0H130.906V1.07246H126.522V0H122.138V1.07246H117.754V0H113.37V1.07246H108.986V0H104.602V1.07246H100.218V0H95.8344V1.07246H91.4505V0H87.0666V1.07246H82.6827V0H78.2988V1.07246H73.9149V0H69.531V1.07246H65.147V0H60.7631V1.07246H56.3792V0H51.9953V1.07246H47.6114V0H43.2275V1.07246H38.8436V0H34.4597V1.07246H30.0758V0H25.6918V1.07246H23.5C22.8136 1.07246 22.127 1.10336 21.4426 1.16404L21.3479 0.0957797C19.9157 0.222765 18.4954 0.474312 17.1079 0.840193L17.3814 1.8772C16.0457 2.2294 14.7416 2.69218 13.4899 3.25552L13.0498 2.27754C11.7322 2.87052 10.4701 3.57038 9.28558 4.36646L9.8838 5.25657C8.73345 6.02969 7.662 6.89598 6.69082 7.84386L5.94174 7.07637C4.90543 8.08782 3.97537 9.19018 3.17569 10.3718L4.06387 10.9729C3.29993 12.1017 2.66431 13.303 2.1784 14.5653L1.17755 14.18C0.666793 15.5067 0.310117 16.9006 0.1315 18.3501L1.19591 18.4813C1.1145 19.1419 1.07246 19.8151 1.07246 20.5V22.7045H0V27.1136H1.07246V31.5227H0V35.9318H1.07246V40.3409H0V44.75H1.07246V49.1591H0V53.5682H1.07246V57.9773H0V62.3863H1.07246V66.7954H0V71.2045H1.07246V75.6136H0V80.0227H1.07246V84.4318H0V88.8409H1.07246V93.25H0V97.659H1.07246V102.068H0V106.477H1.07246V110.886H0V115.295H1.07246V117.5C1.07246 118.193 1.11554 118.879 1.19909 119.555L0.134726 119.687C0.315431 121.149 0.673966 122.569 1.18637 123.932L2.1902 123.554C2.67469 124.843 3.30635 126.081 4.06424 127.253L3.1637 127.835C3.95199 129.054 4.86753 130.201 5.88706 131.262L6.66019 130.518C7.62237 131.519 8.68298 132.441 9.8208 133.268L9.18996 134.136C10.3685 134.993 11.6249 135.753 12.9374 136.4L13.4121 135.439C14.6685 136.059 15.9772 136.572 17.317 136.964L17.0157 137.993C18.4207 138.405 19.8601 138.69 21.3117 138.834L21.4179 137.767C22.1107 137.836 22.8056 137.871 23.5 137.871H25.6983V138.943H30.0949V137.871H34.4916V138.943H38.8882V137.871H43.2848V138.943H47.6814V137.871H52.078V138.943H56.4747V137.871H60.8713V138.943H65.2679V137.871H69.6645V138.943H74.0612V137.871H78.4578V138.943H82.8544V137.871H87.251V138.943H91.6476V137.871H96.0443V138.943H100.441V137.871H104.838V138.943H109.234V137.871H111.432H112.505V138.943V141.17H111.432V145.623H112.505V150.077H111.432V154.53H112.505V158.983H111.432V163.437H112.505V165.663C112.505 166.067 112.56 166.459 112.665 166.832L111.632 167.122C111.901 168.079 112.43 168.938 113.159 169.606L113.883 168.815C114.168 169.076 114.493 169.301 114.851 169.48C115.209 169.659 115.585 169.784 115.968 169.855L115.772 170.909C116.745 171.091 117.755 170.998 118.686 170.645L118.305 169.642C118.67 169.504 119.02 169.315 119.344 169.077C119.345 169.076 119.347 169.075 119.348 169.074L121.061 167.789L121.704 168.647Z" fill="white" fill-opacity="0.15" style="mix-blend-mode:overlay"/>
<path d="M121.704 168.647L125.147 166.064L124.504 165.206L127.947 162.623L128.59 163.481L132.033 160.898L131.39 160.04L134.833 157.458L135.476 158.315L138.919 155.732L138.276 154.875L141.719 152.292L142.362 153.15L145.805 150.567L145.162 149.709L148.604 147.126L149.248 147.984L152.691 145.401L152.047 144.543L155.49 141.96L156.134 142.818L159.577 140.235L158.933 139.377L160.655 138.086L160.941 137.871H161.298H163.615V138.943H168.247V137.871H172.88V138.943H177.512V137.871H182.145V138.943H186.778V137.871H191.41V138.943H196.043V137.871H200.675V138.943H205.308V137.871H207.624C208.296 137.871 208.96 137.838 209.615 137.774L209.72 138.842C211.134 138.703 212.509 138.427 213.83 138.026L213.518 137C214.8 136.61 216.03 136.097 217.192 135.473L217.699 136.418C218.937 135.754 220.102 134.972 221.18 134.086L220.499 133.258C221.526 132.413 222.47 131.47 223.314 130.442L224.143 131.123C225.028 130.046 225.811 128.88 226.475 127.642L225.53 127.135C226.153 125.973 226.667 124.744 227.056 123.461L228.082 123.773C228.484 122.452 228.76 121.078 228.898 119.663L227.831 119.559C227.895 118.904 227.928 118.24 227.928 117.568V115.381H229V111.009H227.928V106.637H229V102.264H227.928V97.892H229V93.5196H227.928V89.1473H229V84.7749H227.928V80.4026H229V76.0303H227.928V71.6579H229V67.2856H227.928V62.9132H229V58.5409H227.928V54.1685H229V49.7962H227.928V45.4238H229V41.0515H227.928V36.6791H229V32.3068H227.928V27.9345H229V23.5621H227.928V21.3759C227.928 20.7038 227.895 20.0396 227.831 19.3846L228.898 19.2804C228.76 17.8658 228.484 16.4912 228.082 15.1705L227.056 15.4821C226.667 14.1996 226.153 12.9703 225.53 11.8081L226.475 11.3012C225.811 10.0631 225.028 8.89777 224.143 7.82029L223.314 8.50131C222.47 7.47383 221.526 6.53044 220.499 5.68583L221.18 4.85736C220.102 3.97165 218.937 3.18913 217.699 2.52502L217.192 3.4701C216.03 2.8467 214.8 2.33332 213.518 1.94379L213.83 0.917624C212.509 0.516481 211.134 0.239962 209.72 0.101808L209.615 1.16919C208.96 1.10522 208.296 1.07246 207.624 1.07246H205.432V0H201.048V1.07246H196.664V0H192.28V1.07246H187.897V0H183.513V1.07246H179.129V0H174.745V1.07246H170.361V0H165.977V1.07246H161.593V0H157.209V1.07246H152.825V0H148.441V1.07246H144.057V0H139.674V1.07246H135.29V0H130.906V1.07246H126.522V0H122.138V1.07246H117.754V0H113.37V1.07246H108.986V0H104.602V1.07246H100.218V0H95.8344V1.07246H91.4505V0H87.0666V1.07246H82.6827V0H78.2988V1.07246H73.9149V0H69.531V1.07246H65.147V0H60.7631V1.07246H56.3792V0H51.9953V1.07246H47.6114V0H43.2275V1.07246H38.8436V0H34.4597V1.07246H30.0758V0H25.6918V1.07246H23.5C22.8136 1.07246 22.127 1.10336 21.4426 1.16404L21.3479 0.0957797C19.9157 0.222765 18.4954 0.474312 17.1079 0.840193L17.3814 1.8772C16.0457 2.2294 14.7416 2.69218 13.4899 3.25552L13.0498 2.27754C11.7322 2.87052 10.4701 3.57038 9.28558 4.36646L9.8838 5.25657C8.73345 6.02969 7.662 6.89598 6.69082 7.84386L5.94174 7.07637C4.90543 8.08782 3.97537 9.19018 3.17569 10.3718L4.06387 10.9729C3.29993 12.1017 2.66431 13.303 2.1784 14.5653L1.17755 14.18C0.666793 15.5067 0.310117 16.9006 0.1315 18.3501L1.19591 18.4813C1.1145 19.1419 1.07246 19.8151 1.07246 20.5V22.7045H0V27.1136H1.07246V31.5227H0V35.9318H1.07246V40.3409H0V44.75H1.07246V49.1591H0V53.5682H1.07246V57.9773H0V62.3863H1.07246V66.7954H0V71.2045H1.07246V75.6136H0V80.0227H1.07246V84.4318H0V88.8409H1.07246V93.25H0V97.659H1.07246V102.068H0V106.477H1.07246V110.886H0V115.295H1.07246V117.5C1.07246 118.193 1.11554 118.879 1.19909 119.555L0.134726 119.687C0.315431 121.149 0.673966 122.569 1.18637 123.932L2.1902 123.554C2.67469 124.843 3.30635 126.081 4.06424 127.253L3.1637 127.835C3.95199 129.054 4.86753 130.201 5.88706 131.262L6.66019 130.518C7.62237 131.519 8.68298 132.441 9.8208 133.268L9.18996 134.136C10.3685 134.993 11.6249 135.753 12.9374 136.4L13.4121 135.439C14.6685 136.059 15.9772 136.572 17.317 136.964L17.0157 137.993C18.4207 138.405 19.8601 138.69 21.3117 138.834L21.4179 137.767C22.1107 137.836 22.8056 137.871 23.5 137.871H25.6983V138.943H30.0949V137.871H34.4916V138.943H38.8882V137.871H43.2848V138.943H47.6814V137.871H52.078V138.943H56.4747V137.871H60.8713V138.943H65.2679V137.871H69.6645V138.943H74.0612V137.871H78.4578V138.943H82.8544V137.871H87.251V138.943H91.6476V137.871H96.0443V138.943H100.441V137.871H104.838V138.943H109.234V137.871H111.432H112.505V138.943V141.17H111.432V145.623H112.505V150.077H111.432V154.53H112.505V158.983H111.432V163.437H112.505V165.663C112.505 166.067 112.56 166.459 112.665 166.832L111.632 167.122C111.901 168.079 112.43 168.938 113.159 169.606L113.883 168.815C114.168 169.076 114.493 169.301 114.851 169.48C115.209 169.659 115.585 169.784 115.968 169.855L115.772 170.909C116.745 171.091 117.755 170.998 118.686 170.645L118.305 169.642C118.67 169.504 119.02 169.315 119.344 169.077C119.345 169.076 119.347 169.075 119.348 169.074L121.061 167.789L121.704 168.647Z" stroke="url(#paint0_linear_1_51)" stroke-width="2.14491" stroke-dasharray="4.29 4.29"/>
<defs>
<linearGradient id="paint0_linear_1_51" x1="21.1635" y1="1.30974e-06" x2="141.718" y2="215.091" gradientUnits="userSpaceOnUse">
<stop stop-color="#234EE6"/>
<stop offset="1" stop-color="#09FBD3"/>
</linearGradient>
</defs>
</svg>
