<svg width="229" height="171" viewBox="0 0 229 171" fill="none" xmlns="http://www.w3.org/2000/svg">
<path d="M107.296 168.647L103.853 166.064L104.496 165.206L101.053 162.623L100.41 163.481L96.9668 160.898L97.6104 160.04L94.1675 157.458L93.5239 158.315L90.0809 155.732L90.7245 154.875L87.2815 152.292L86.6379 153.15L83.195 150.567L83.8385 149.709L80.3956 147.126L79.752 147.984L76.309 145.401L76.9526 144.543L73.5096 141.96L72.8661 142.818L69.4231 140.235L70.0667 139.377L68.3452 138.086L68.0592 137.871H67.7016H65.3853V138.943H60.7527V137.871H56.1202V138.943H51.4876V137.871H46.8551V138.943H42.2225V137.871H37.5899V138.943H32.9574V137.871H28.3248V138.943H23.6922V137.871H21.376C20.7039 137.871 20.0396 137.838 19.3846 137.774L19.2804 138.842C17.8658 138.704 16.4913 138.427 15.1705 138.026L15.4822 137C14.1997 136.61 12.9704 136.097 11.8082 135.473L11.3012 136.418C10.0632 135.754 8.89781 134.972 7.82033 134.086L8.50134 133.258C7.47388 132.413 6.53049 131.47 5.68587 130.442L4.85741 131.123C3.97169 130.046 3.18918 128.88 2.52507 127.642L3.47014 127.135C2.84676 125.973 2.33337 124.744 1.94383 123.461L0.917664 123.773C0.516525 122.452 0.240005 121.078 0.101852 119.663L1.16924 119.559C1.10527 118.904 1.07251 118.24 1.07251 117.568V115.381H4.57764e-05V111.009H1.07251V106.637H4.57764e-05V102.264H1.07251V97.892H4.57764e-05V93.5197H1.07251V89.1473H4.57764e-05V84.775H1.07251V80.4026H4.57764e-05V76.0303H1.07251V71.6579H4.57764e-05V67.2856H1.07251V62.9132H4.57764e-05V58.5409H1.07251V54.1685H4.57764e-05V49.7962H1.07251V45.4238H4.57764e-05V41.0515H1.07251V36.6791H4.57764e-05V32.3068H1.07251V27.9344H4.57764e-05V23.5621H1.07251V21.3759C1.07251 20.7038 1.10527 20.0396 1.16924 19.3846L0.101852 19.2804C0.240005 17.8658 0.516525 16.4912 0.917664 15.1705L1.94383 15.4821C2.33337 14.1996 2.84676 12.9703 3.47014 11.8081L2.52507 11.3012C3.18918 10.0631 3.97169 8.89776 4.85741 7.82028L5.68588 8.50131C6.53049 7.47383 7.47388 6.53044 8.50136 5.68583L7.82033 4.85735C8.89781 3.97165 10.0632 3.18913 11.3012 2.52502L11.8082 3.4701C12.9704 2.8467 14.1997 2.33332 15.4822 1.94379L15.1705 0.917622C16.4913 0.51648 17.8658 0.239962 19.2804 0.101808L19.3846 1.16919C20.0396 1.10522 20.7039 1.07246 21.376 1.07246H23.5679V0H27.9518V1.07246H32.3357V0H36.7196V1.07246H41.1035V0H45.4875V1.07246H49.8714V0H54.2553V1.07246H58.6392V0H63.0231V1.07246H67.407V0H71.7909V1.07246H76.1748V0H80.5587V1.07246H84.9426V0H89.3265V1.07246H93.7104V0H98.0943V1.07246H102.478V0H106.862V1.07246H111.246V0H115.63V1.07246H120.014V0H124.398V1.07246H128.782V0H133.166V1.07246H137.55V0H141.933V1.07246H146.317V0H150.701V1.07246H155.085V0H159.469V1.07246H163.853V0H168.237V1.07246H172.621V0H177.005V1.07246H181.389V0H185.773V1.07246H190.156V0H194.54V1.07246H198.924V0H203.308V1.07246H205.5C206.186 1.07246 206.873 1.10336 207.558 1.16404L207.652 0.0957797C209.084 0.222765 210.505 0.474312 211.892 0.840193L211.619 1.8772C212.954 2.2294 214.258 2.69218 215.51 3.25552L215.95 2.27754C217.268 2.87052 218.53 3.57038 219.715 4.36646L219.116 5.25657C220.267 6.02969 221.338 6.89598 222.309 7.84386L223.058 7.07637C224.095 8.08782 225.025 9.19018 225.824 10.3718L224.936 10.9729C225.7 12.1017 226.336 13.303 226.822 14.5653L227.823 14.18C228.333 15.5067 228.69 16.9006 228.869 18.3501L227.804 18.4813C227.886 19.1419 227.928 19.8151 227.928 20.5V22.7045H229V27.1136H227.928V31.5227H229V35.9318H227.928V40.3409H229V44.75H227.928V49.1591H229V53.5682H227.928V57.9773H229V62.3864H227.928V66.7955H229V71.2046H227.928V75.6136H229V80.0227H227.928V84.4318H229V88.8409H227.928V93.25H229V97.6591H227.928V102.068H229V106.477H227.928V110.886H229V115.295H227.928V117.5C227.928 118.193 227.885 118.879 227.801 119.555L228.865 119.687C228.685 121.149 228.326 122.569 227.814 123.932L226.81 123.555C226.325 124.843 225.694 126.081 224.936 127.253L225.836 127.835C225.048 129.054 224.133 130.201 223.113 131.262L222.34 130.518C221.378 131.519 220.317 132.441 219.179 133.268L219.81 134.136C218.632 134.993 217.375 135.753 216.063 136.4L215.588 135.439C214.332 136.059 213.023 136.572 211.683 136.964L211.984 137.993C210.579 138.405 209.14 138.69 207.688 138.834L207.582 137.767C206.889 137.836 206.194 137.871 205.5 137.871H203.302V138.943H198.905V137.871H194.509V138.943H190.112V137.871H185.715V138.943H181.319V137.871H176.922V138.943H172.525V137.871H168.129V138.943H163.732V137.871H159.336V138.943H154.939V137.871H150.542V138.943H146.146V137.871H141.749V138.943H137.352V137.871H132.956V138.943H128.559V137.871H124.163V138.943H119.766V137.871H117.568H116.495V138.943V141.17H117.568V145.623H116.495V150.077H117.568V154.53H116.495V158.983H117.568V163.437H116.495V165.663C116.495 166.067 116.44 166.459 116.335 166.832L117.368 167.122C117.099 168.079 116.571 168.938 115.841 169.606L115.117 168.815C114.832 169.076 114.507 169.301 114.149 169.48C113.791 169.659 113.415 169.784 113.032 169.855L113.229 170.909C112.255 171.091 111.245 170.998 110.314 170.645L110.695 169.642C110.331 169.504 109.981 169.315 109.656 169.077C109.655 169.076 109.654 169.075 109.652 169.074L107.939 167.789L107.296 168.647Z" fill="white" fill-opacity="0.15" style="mix-blend-mode:overlay"/>
<path d="M107.296 168.647L103.853 166.064L104.496 165.206L101.053 162.623L100.41 163.481L96.9668 160.898L97.6104 160.04L94.1675 157.458L93.5239 158.315L90.0809 155.732L90.7245 154.875L87.2815 152.292L86.6379 153.15L83.195 150.567L83.8385 149.709L80.3956 147.126L79.752 147.984L76.309 145.401L76.9526 144.543L73.5096 141.96L72.8661 142.818L69.4231 140.235L70.0667 139.377L68.3452 138.086L68.0592 137.871H67.7016H65.3853V138.943H60.7527V137.871H56.1202V138.943H51.4876V137.871H46.8551V138.943H42.2225V137.871H37.5899V138.943H32.9574V137.871H28.3248V138.943H23.6922V137.871H21.376C20.7039 137.871 20.0396 137.838 19.3846 137.774L19.2804 138.842C17.8658 138.704 16.4913 138.427 15.1705 138.026L15.4822 137C14.1997 136.61 12.9704 136.097 11.8082 135.473L11.3012 136.418C10.0632 135.754 8.89781 134.972 7.82033 134.086L8.50134 133.258C7.47388 132.413 6.53049 131.47 5.68587 130.442L4.85741 131.123C3.97169 130.046 3.18918 128.88 2.52507 127.642L3.47014 127.135C2.84676 125.973 2.33337 124.744 1.94383 123.461L0.917664 123.773C0.516525 122.452 0.240005 121.078 0.101852 119.663L1.16924 119.559C1.10527 118.904 1.07251 118.24 1.07251 117.568V115.381H4.57764e-05V111.009H1.07251V106.637H4.57764e-05V102.264H1.07251V97.892H4.57764e-05V93.5197H1.07251V89.1473H4.57764e-05V84.775H1.07251V80.4026H4.57764e-05V76.0303H1.07251V71.6579H4.57764e-05V67.2856H1.07251V62.9132H4.57764e-05V58.5409H1.07251V54.1685H4.57764e-05V49.7962H1.07251V45.4238H4.57764e-05V41.0515H1.07251V36.6791H4.57764e-05V32.3068H1.07251V27.9344H4.57764e-05V23.5621H1.07251V21.3759C1.07251 20.7038 1.10527 20.0396 1.16924 19.3846L0.101852 19.2804C0.240005 17.8658 0.516525 16.4912 0.917664 15.1705L1.94383 15.4821C2.33337 14.1996 2.84676 12.9703 3.47014 11.8081L2.52507 11.3012C3.18918 10.0631 3.97169 8.89776 4.85741 7.82028L5.68588 8.50131C6.53049 7.47383 7.47388 6.53044 8.50136 5.68583L7.82033 4.85735C8.89781 3.97165 10.0632 3.18913 11.3012 2.52502L11.8082 3.4701C12.9704 2.8467 14.1997 2.33332 15.4822 1.94379L15.1705 0.917622C16.4913 0.51648 17.8658 0.239962 19.2804 0.101808L19.3846 1.16919C20.0396 1.10522 20.7039 1.07246 21.376 1.07246H23.5679V0H27.9518V1.07246H32.3357V0H36.7196V1.07246H41.1035V0H45.4875V1.07246H49.8714V0H54.2553V1.07246H58.6392V0H63.0231V1.07246H67.407V0H71.7909V1.07246H76.1748V0H80.5587V1.07246H84.9426V0H89.3265V1.07246H93.7104V0H98.0943V1.07246H102.478V0H106.862V1.07246H111.246V0H115.63V1.07246H120.014V0H124.398V1.07246H128.782V0H133.166V1.07246H137.55V0H141.933V1.07246H146.317V0H150.701V1.07246H155.085V0H159.469V1.07246H163.853V0H168.237V1.07246H172.621V0H177.005V1.07246H181.389V0H185.773V1.07246H190.156V0H194.54V1.07246H198.924V0H203.308V1.07246H205.5C206.186 1.07246 206.873 1.10336 207.558 1.16404L207.652 0.0957797C209.084 0.222765 210.505 0.474312 211.892 0.840193L211.619 1.8772C212.954 2.2294 214.258 2.69218 215.51 3.25552L215.95 2.27754C217.268 2.87052 218.53 3.57038 219.715 4.36646L219.116 5.25657C220.267 6.02969 221.338 6.89598 222.309 7.84386L223.058 7.07637C224.095 8.08782 225.025 9.19018 225.824 10.3718L224.936 10.9729C225.7 12.1017 226.336 13.303 226.822 14.5653L227.823 14.18C228.333 15.5067 228.69 16.9006 228.869 18.3501L227.804 18.4813C227.886 19.1419 227.928 19.8151 227.928 20.5V22.7045H229V27.1136H227.928V31.5227H229V35.9318H227.928V40.3409H229V44.75H227.928V49.1591H229V53.5682H227.928V57.9773H229V62.3864H227.928V66.7955H229V71.2046H227.928V75.6136H229V80.0227H227.928V84.4318H229V88.8409H227.928V93.25H229V97.6591H227.928V102.068H229V106.477H227.928V110.886H229V115.295H227.928V117.5C227.928 118.193 227.885 118.879 227.801 119.555L228.865 119.687C228.685 121.149 228.326 122.569 227.814 123.932L226.81 123.555C226.325 124.843 225.694 126.081 224.936 127.253L225.836 127.835C225.048 129.054 224.133 130.201 223.113 131.262L222.34 130.518C221.378 131.519 220.317 132.441 219.179 133.268L219.81 134.136C218.632 134.993 217.375 135.753 216.063 136.4L215.588 135.439C214.332 136.059 213.023 136.572 211.683 136.964L211.984 137.993C210.579 138.405 209.14 138.69 207.688 138.834L207.582 137.767C206.889 137.836 206.194 137.871 205.5 137.871H203.302V138.943H198.905V137.871H194.509V138.943H190.112V137.871H185.715V138.943H181.319V137.871H176.922V138.943H172.525V137.871H168.129V138.943H163.732V137.871H159.336V138.943H154.939V137.871H150.542V138.943H146.146V137.871H141.749V138.943H137.352V137.871H132.956V138.943H128.559V137.871H124.163V138.943H119.766V137.871H117.568H116.495V138.943V141.17H117.568V145.623H116.495V150.077H117.568V154.53H116.495V158.983H117.568V163.437H116.495V165.663C116.495 166.067 116.44 166.459 116.335 166.832L117.368 167.122C117.099 168.079 116.571 168.938 115.841 169.606L115.117 168.815C114.832 169.076 114.507 169.301 114.149 169.48C113.791 169.659 113.415 169.784 113.032 169.855L113.229 170.909C112.255 171.091 111.245 170.998 110.314 170.645L110.695 169.642C110.331 169.504 109.981 169.315 109.656 169.077C109.655 169.076 109.654 169.075 109.652 169.074L107.939 167.789L107.296 168.647Z" stroke="url(#paint0_linear_1_44)" stroke-width="2.14491" stroke-dasharray="4.29 4.29"/>
<defs>
<linearGradient id="paint0_linear_1_44" x1="207.837" y1="1.30974e-06" x2="87.2817" y2="215.091" gradientUnits="userSpaceOnUse">
<stop stop-color="#234EE6"/>
<stop offset="1" stop-color="#09FBD3"/>
</linearGradient>
</defs>
</svg>
